<svg id="Calque_1" data-name="Calque 1" xmlns="http://www.w3.org/2000/svg" viewBox="0 0 85.53 97.56"><defs><style>.cls-1{fill:#354829;}.cls-2{fill:#edcd31;opacity:0.5;}</style></defs><title>damage</title><path class="cls-1" d="M0,29.89v39a9,9,0,0,0,4.5,7.8L38.26,96.16a9,9,0,0,0,9,0L81,76.67a9,9,0,0,0,4.5-7.8v-39a9,9,0,0,0-4.5-7.8L47.26,2.6a9,9,0,0,0-9,0L4.5,22.09A9,9,0,0,0,0,29.89Z"/><path class="cls-2" d="M57.4,66.67v-7H48.23V25.65l-5.47-9.17-5.47,9.17V59.7H28.12v7h11.4v6.7a5.06,5.06,0,1,0,6.49,0v-6.7Z"/></svg>