<svg id="Calque_1" data-name="Calque 1" xmlns="http://www.w3.org/2000/svg" xmlns:xlink="http://www.w3.org/1999/xlink" viewBox="0 0 592.1 743.57"><defs><style>.cls-1{fill:#1c1c1c;}.cls-2,.cls-3{fill:#141414;}.cls-3{stroke:#1c1c1c;stroke-miterlimit:10;}</style></defs><title>back_card</title><rect class="cls-1" x="34.31" width="557.79" height="743.57" rx="15"/><path class="cls-1" d="M3.61,212.35V251a9,9,0,0,0,4.5,7.8l33.47,19.32a9,9,0,0,0,9,0l33.48-19.32a9,9,0,0,0,4.5-7.8V212.35a9,9,0,0,0-4.5-7.79L50.58,185.23a9,9,0,0,0-9,0L8.11,204.56A9,9,0,0,0,3.61,212.35Z"/><path class="cls-1" d="M3.61,315.74V354.4a9,9,0,0,0,4.5,7.79l33.47,19.33a9,9,0,0,0,9,0l33.48-19.33a9,9,0,0,0,4.5-7.79V315.74a9,9,0,0,0-4.5-7.79L50.58,288.62a9,9,0,0,0-9,0L8.11,308A9,9,0,0,0,3.61,315.74Z"/><path class="cls-1" d="M5.46,579.71v38.65a9,9,0,0,0,4.5,7.8l33.48,19.33a9,9,0,0,0,9,0l33.48-19.33a9,9,0,0,0,4.5-7.8V579.71a9,9,0,0,0-4.5-7.8L52.44,552.58a9,9,0,0,0-9,0L10,571.91A9,9,0,0,0,5.46,579.71Z"/><image width="1131" height="333" transform="translate(158.75 326.31) scale(0.27)" xlink:href="G:%5CImages%5CMeme%5Cmemstone_logo.png"/><path class="cls-2" d="M183.22,710.1H77.93a9.29,9.29,0,0,1-9.29-9.29c4.81-20.42,9-42.1,12.12-65,14.06-101.69,3.69-191.44-12.12-261.12C82.94,304.53,92,216.2,80.76,116.08c-3-26.72-7.17-52-12.12-75.69a9.5,9.5,0,0,1,2.72-6.58,9.27,9.27,0,0,1,6.57-2.72H183.22a765.91,765.91,0,0,0,0,679Z"/><path class="cls-2" d="M67.53,337.13q.63-129.33,1.24-258.65A766.85,766.85,0,0,1,79.1,211.94,766.74,766.74,0,0,1,67.53,337.13Z"/><path class="cls-2" d="M67.53,667.84q.63-129.32,1.24-258.64A766.73,766.73,0,0,1,79.1,542.65,766.63,766.63,0,0,1,67.53,667.84Z"/><path class="cls-2" d="M440.91,711.29H546.2a9.29,9.29,0,0,0,9.29-9.3c-4.81-20.42-9-42.09-12.12-65-14-101.69-3.69-191.44,12.12-261.12-14.3-70.2-23.33-158.53-12.12-258.65,3-26.72,7.17-52,12.12-75.69A9.5,9.5,0,0,0,552.77,35a9.26,9.26,0,0,0-6.57-2.72H440.91a768.39,768.39,0,0,1,79.35,342.8A768.32,768.32,0,0,1,440.91,711.29Z"/><path class="cls-2" d="M556.6,338.32Q556,209,555.36,79.67a767.09,767.09,0,0,0,1.24,258.65Z"/><path class="cls-2" d="M556.6,669q-.63-129.31-1.24-258.64A767,767,0,0,0,556.6,669Z"/><path class="cls-2" d="M14.69,223.22v16.92a16.73,16.73,0,0,0,8.36,14.5l11.25,6.49v12.79L12,261a16.71,16.71,0,0,1-8.37-14.5V216.82A16.71,16.71,0,0,1,12,202.32L34.3,189.43v12.8l-11.25,6.48A16.75,16.75,0,0,0,14.69,223.22Z"/><path class="cls-2" d="M14.69,326.61v16.92A16.72,16.72,0,0,0,23.05,358l11.25,6.49v12.79L12,364.43a16.72,16.72,0,0,1-8.37-14.5V320.22A16.74,16.74,0,0,1,12,305.71L34.3,292.83v12.79l-11.25,6.49A16.72,16.72,0,0,0,14.69,326.61Z"/><path class="cls-2" d="M16.56,590.57v16.92A16.74,16.74,0,0,0,24.93,622l9.37,5.41V640.2L13.85,628.39a16.71,16.71,0,0,1-8.37-14.5V584.18a16.71,16.71,0,0,1,8.37-14.5L34.3,557.87v12.79l-9.37,5.41A16.73,16.73,0,0,0,16.56,590.57Z"/><path class="cls-2" d="M316,402.27a466.6,466.6,0,0,0-117.89,15,922.88,922.88,0,0,1,234.68,0A467,467,0,0,0,316,402.27Z"/><circle class="cls-3" cx="313.2" cy="417.26" r="9.11"/><path class="cls-2" d="M352.21,412.86a150.87,150.87,0,0,0-22-1c-2.72.07-5.36.21-7.9.41a10.08,10.08,0,0,1,1.08,4.44,9.66,9.66,0,0,1-.18,2Z"/><path class="cls-2" d="M274.19,412.86a150.87,150.87,0,0,1,22-1c2.73.07,5.36.21,7.91.41a10.2,10.2,0,0,0-1.09,4.44,10.42,10.42,0,0,0,.18,2Z"/></svg>