<svg id="Calque_1" data-name="Calque 1" xmlns="http://www.w3.org/2000/svg" viewBox="0 0 124.28 100.4"><defs><style>.cls-1{fill:#56421a;}</style></defs><title>details</title><path class="cls-1" d="M19,0C16.62,2.32,2.81,11.32,0,12.48l.21,80.9C6.47,93.38,19,31.13,19,0Z"/><path class="cls-1" d="M46,93.38H5a111.55,111.55,0,0,0,6.9-17.89c3-10.31,3.78-18.66,4.16-18.61S14.85,67.6,15,83.19c0,2.11.06,3.89.1,5.2Z"/><path class="cls-1" d="M124.28,89.93c0,.55-28.08,3.26-64.39,0A384.16,384.16,0,0,1,19.07,84L19,78.28a358.54,358.54,0,0,0,41.74,8.25C97.6,91.58,124.28,89.4,124.28,89.93Z"/></svg>