<svg id="Calque_1" data-name="Calque 1" xmlns="http://www.w3.org/2000/svg" viewBox="0 0 595.53 748.56"><defs><style>.cls-1{fill:#b29439;}.cls-2{fill:#7c6227;}.cls-3{fill:#f1f2f2;opacity:0.5;}.cls-4{fill:#56421a;}</style></defs><title>front_card</title><rect class="cls-1" x="34" width="561.53" height="748.56" rx="15"/><path class="cls-2" d="M560.05,722q-117.33,5.09-244,5.32-127.93,0-246.6-5.32a9.56,9.56,0,0,1-6.62-2.74,9.37,9.37,0,0,1-2.74-6.62,429.49,429.49,0,0,1,0-219.52,9.56,9.56,0,0,1,2.74-6.62,9.37,9.37,0,0,1,6.62-2.74q118.92-4.75,246.6-4.9,126.18,0,244,4.9a9.56,9.56,0,0,1,6.62,2.74,9.37,9.37,0,0,1,2.74,6.62,438,438,0,0,1,0,219.52C569.41,713.23,569.35,716.55,560.05,722Z"/><rect class="cls-3" x="60.12" y="22.85" width="509.29" height="445.86" rx="5"/><path class="cls-4" d="M526.58,493.72a75.35,75.35,0,0,1,23.29-.73c1.58.2,3.1.45,4.58.73.88.79,3.57,1.49,3.74,3.74,2.38,32.52,3.83,67.34,3.88,104.23,0,38.27-1.42,74.33-3.88,107.91a3.83,3.83,0,0,1-1.1,2.64,3.7,3.7,0,0,1-2.64,1.1,59.11,59.11,0,0,1-9.57,1.49,60.22,60.22,0,0,1-18.3-1.49,270.46,270.46,0,0,0,0-219.62Z"/><path class="cls-4" d="M562.76,713.34c2.35-34.33,3.75-71,3.75-109.71s-1.4-75.52-3.75-109.91a561.65,561.65,0,0,1,10.82,109.64C573.58,640,562.76,713.34,562.76,713.34Z"/><path class="cls-4" d="M527,696.46q-1.49,4.23-3.32,8.74c-1.13,2.75-2.28,5.39-3.44,7.9a239,239,0,0,0-61,.24C469.55,710,480.65,706.83,527,696.46Z"/><path class="cls-4" d="M476.66,704.9l-25.47,8.44a124.17,124.17,0,0,1-44.82,0C414.81,711.78,423.6,710.36,476.66,704.9Z"/><path class="cls-4" d="M527,510.17c-1-2.81-2.1-5.73-3.32-8.73q-1.7-4.14-3.44-7.9a239.71,239.71,0,0,1-61-.25C469.55,496.61,480.65,499.81,527,510.17Z"/><path class="cls-4" d="M476.66,501.73l-25.47-8.44a124.81,124.81,0,0,0-44.82,0C414.81,494.85,423.6,496.27,476.66,501.73Z"/><path class="cls-4" d="M103,494.1a75.35,75.35,0,0,0-23.29-.73c-1.58.2-3.1.45-4.57.73-.89.79-3.58,1.49-3.75,3.74-2.38,32.52-3.83,67.34-3.88,104.23,0,38.27,1.42,74.33,3.88,107.91a3.83,3.83,0,0,0,1.1,2.64,3.72,3.72,0,0,0,2.65,1.1,59.15,59.15,0,0,0,9.56,1.49,60.22,60.22,0,0,0,18.3-1.49,270.46,270.46,0,0,1,0-219.62Z"/><path class="cls-4" d="M66.77,713.72C64.42,679.39,63,642.74,63,604s1.4-75.52,3.75-109.91A561.65,561.65,0,0,0,56,603.74C56,640.4,66.77,713.72,66.77,713.72Z"/><path class="cls-4" d="M102.54,696.84c1,2.82,2.1,5.74,3.33,8.74,1.12,2.75,2.27,5.39,3.43,7.9a240.24,240.24,0,0,1,61,.24C160,710.41,148.89,707.21,102.54,696.84Z"/><path class="cls-4" d="M152.87,705.28l25.48,8.44a124.09,124.09,0,0,0,44.81,0C214.72,712.16,205.93,710.74,152.87,705.28Z"/><path class="cls-4" d="M102.54,510.55c1-2.81,2.1-5.73,3.33-8.73,1.12-2.76,2.27-5.39,3.43-7.9a239.71,239.71,0,0,0,61-.25C160,497,148.89,500.19,102.54,510.55Z"/><path class="cls-4" d="M152.87,502.11l25.48-8.44a124.73,124.73,0,0,1,44.81,0C214.72,495.23,205.93,496.65,152.87,502.11Z"/><circle class="cls-4" cx="581.67" cy="477.18" r="6.71"/><circle class="cls-4" cx="47.72" cy="477.43" r="6.71"/><circle class="cls-4" cx="315.12" cy="709.65" r="2.62"/><path class="cls-4" d="M5,583.56v39a9,9,0,0,0,4.5,7.79l33.77,19.5a9,9,0,0,0,9,0L86,630.34a9,9,0,0,0,4.5-7.79v-39a9,9,0,0,0-4.5-7.79L52.23,556.28a9,9,0,0,0-9,0L9.46,575.77A9,9,0,0,0,5,583.56Z"/><path class="cls-3" d="M14.18,589.74v28.34a9,9,0,0,0,4.5,7.8l24.55,14.17a9,9,0,0,0,9,0l24.54-14.17a9,9,0,0,0,4.5-7.8V589.74a9,9,0,0,0-4.5-7.8L52.23,567.77a9,9,0,0,0-9,0L18.68,581.94A9,9,0,0,0,14.18,589.74Z"/></svg>