<svg width="167" height="167" viewBox="0 0 167 167" fill="none" xmlns="http://www.w3.org/2000/svg">
<circle cx="82.2347" cy="89.8258" r="51.8712" fill="#2E2E2E"/>
<path d="M83.5001 153.083C45.0692 153.083 13.9167 121.931 13.9167 83.4998C13.9167 45.069 45.0692 13.9165 83.5001 13.9165C121.931 13.9165 153.083 45.069 153.083 83.4998C153.083 121.931 121.931 153.083 83.5001 153.083ZM76.5417 111.333V125.25H90.4584V111.333H97.4167C100.647 111.333 103.814 110.434 106.562 108.735C109.31 107.037 111.531 104.607 112.976 101.717C114.421 98.8274 115.032 95.5927 114.742 92.3751C114.452 89.1575 113.272 86.0843 111.333 83.4998C113.272 80.9153 114.452 77.8421 114.742 74.6246C115.032 71.407 114.421 68.1722 112.976 65.2827C111.531 62.3931 109.31 59.963 106.562 58.2646C103.814 56.5661 100.647 55.6665 97.4167 55.6665H90.4584V41.7498H76.5417V55.6665H55.6667V111.333H76.5417ZM69.5834 90.4582H97.4167C98.3395 90.4582 99.2244 90.8247 99.8769 91.4772C100.529 92.1297 100.896 93.0146 100.896 93.9373C100.896 94.8601 100.529 95.745 99.8769 96.3975C99.2244 97.05 98.3395 97.4165 97.4167 97.4165H69.5834V90.4582ZM69.5834 69.5832H97.4167C98.3395 69.5832 99.2244 69.9497 99.8769 70.6022C100.529 71.2547 100.896 72.1396 100.896 73.0623C100.896 73.9851 100.529 74.87 99.8769 75.5225C99.2244 76.175 98.3395 76.5415 97.4167 76.5415H69.5834V69.5832Z" fill="#E7C318"/>
</svg>
