<svg width="79" height="79" viewBox="0 0 79 79" fill="none" xmlns="http://www.w3.org/2000/svg">
<path fill-rule="evenodd" clip-rule="evenodd" d="M40.7213 1.87974L39.5001 1.39258L38.2789 1.87974L5.36221 15.0464L3.29175 15.8759V63.1245L5.36221 63.9507L38.2789 77.1174L39.5001 77.6078L40.7213 77.1174L73.638 63.9507L75.7084 63.1245V15.8759L73.638 15.0464L40.7213 1.87974ZM9.87508 22.9662V58.6676L36.2084 69.2009V33.4995L9.87508 22.9662ZM42.7918 33.4995V69.2009L69.1251 58.6676V22.9662L42.7918 33.4995ZM63.5523 18.1044L39.5001 8.48283L32.7291 11.1919L56.7813 20.8134L63.5523 18.1044ZM15.4479 18.1044L23.8647 14.737L47.9169 24.3585L39.5001 27.7259L15.4479 18.1044Z" fill="#2E2E2E"/>
</svg>
