<svg width="80" height="80" viewBox="0 0 80 80" fill="none" xmlns="http://www.w3.org/2000/svg">
<path d="M72.1016 54.8359H25.5781L27.9141 50.0781L66.7266 50.0078C68.0391 50.0078 69.1641 49.0703 69.3985 47.7734L74.7735 17.6875C74.9141 16.8984 74.7031 16.0859 74.1875 15.4688C73.9327 15.165 73.6148 14.9203 73.256 14.7517C72.8971 14.5831 72.5059 14.4945 72.1094 14.4922L22.7344 14.3281L22.3125 12.3438C22.0469 11.0781 20.9063 10.1562 19.6094 10.1562H7.53906C6.80765 10.1563 6.10619 10.4468 5.58899 10.964C5.0718 11.4812 4.78125 12.1826 4.78125 12.9141C4.78125 13.6455 5.0718 14.3469 5.58899 14.8641C6.10619 15.3813 6.80765 15.6719 7.53906 15.6719H17.375L19.2188 24.4375L23.7578 46.4141L17.9141 55.9531C17.6106 56.3627 17.4278 56.8491 17.3864 57.3572C17.345 57.8652 17.4466 58.3748 17.6797 58.8281C18.1484 59.7578 19.0938 60.3438 20.1406 60.3438H25.0469C24.0009 61.733 23.436 63.4251 23.4375 65.1641C23.4375 69.5859 27.0313 73.1797 31.4531 73.1797C35.875 73.1797 39.4688 69.5859 39.4688 65.1641C39.4688 63.4219 38.8906 61.7266 37.8594 60.3438H50.4453C49.3994 61.733 48.8344 63.4251 48.8359 65.1641C48.8359 69.5859 52.4297 73.1797 56.8516 73.1797C61.2735 73.1797 64.8672 69.5859 64.8672 65.1641C64.8672 63.4219 64.2891 61.7266 63.2578 60.3438H72.1094C73.625 60.3438 74.8672 59.1094 74.8672 57.5859C74.8627 56.8553 74.5693 56.1561 74.0512 55.6409C73.5331 55.1257 72.8322 54.8363 72.1016 54.8359ZM23.8828 19.7656L68.8672 19.9141L64.461 44.5859L29.125 44.6484L23.8828 19.7656ZM31.4531 67.6328C30.0938 67.6328 28.9844 66.5234 28.9844 65.1641C28.9844 63.8047 30.0938 62.6953 31.4531 62.6953C32.8125 62.6953 33.9219 63.8047 33.9219 65.1641C33.9219 65.8188 33.6618 66.4468 33.1988 66.9097C32.7358 67.3727 32.1079 67.6328 31.4531 67.6328ZM56.8516 67.6328C55.4922 67.6328 54.3828 66.5234 54.3828 65.1641C54.3828 63.8047 55.4922 62.6953 56.8516 62.6953C58.211 62.6953 59.3203 63.8047 59.3203 65.1641C59.3203 65.8188 59.0602 66.4468 58.5972 66.9097C58.1343 67.3727 57.5063 67.6328 56.8516 67.6328Z" fill="#2E2E2E"/>
</svg>
