<svg width="80" height="80" viewBox="0 0 80 80" fill="none" xmlns="http://www.w3.org/2000/svg">
<path d="M46.0666 73.3332H33.9333C33.173 73.3333 32.4356 73.0736 31.8433 72.597C31.2509 72.1205 30.8393 71.4558 30.6766 70.7132L29.3199 64.4332C27.5101 63.6402 25.7941 62.6485 24.2033 61.4765L18.0799 63.4265C17.3551 63.6576 16.5731 63.6339 15.8637 63.3592C15.1542 63.0845 14.5601 62.5755 14.1799 61.9165L8.09994 51.4132C7.72376 50.7536 7.58255 49.9859 7.69941 49.2357C7.81628 48.4854 8.1843 47.7971 8.74327 47.2832L13.4933 42.9498C13.2773 40.9869 13.2773 39.0061 13.4933 37.0432L8.74327 32.7198C8.18351 32.2057 7.81499 31.5168 7.6981 30.7658C7.58122 30.0148 7.7229 29.2464 8.09994 28.5865L14.1666 18.0765C14.5468 17.4176 15.1409 16.9085 15.8503 16.6338C16.5598 16.3591 17.3418 16.3354 18.0666 16.5665L24.1899 18.5165C25.0033 17.9165 25.8499 17.3565 26.7233 16.8498C27.5666 16.3765 28.4333 15.9465 29.3199 15.5632L30.6799 9.28984C30.8418 8.54716 31.2527 7.88213 31.8444 7.405C32.4361 6.92787 33.1732 6.6673 33.9333 6.6665H46.0666C46.8267 6.6673 47.5637 6.92787 48.1555 7.405C48.7472 7.88213 49.158 8.54716 49.3199 9.28984L50.6933 15.5665C51.6266 15.9798 52.5399 16.4432 53.4233 16.9598C54.2466 17.4365 55.0433 17.9598 55.8099 18.5232L61.9366 16.5732C62.6609 16.3429 63.4422 16.3671 64.151 16.6417C64.8597 16.9163 65.4532 17.4249 65.8333 18.0832L71.8999 28.5932C72.6733 29.9498 72.4066 31.6665 71.2566 32.7232L66.5066 37.0565C66.7226 39.0195 66.7226 41.0002 66.5066 42.9632L71.2566 47.2965C72.4066 48.3565 72.6733 50.0698 71.8999 51.4265L65.8333 61.9365C65.4531 62.5955 64.859 63.1045 64.1495 63.3792C63.4401 63.6539 62.6581 63.6776 61.9333 63.4465L55.8099 61.4965C54.2204 62.6677 52.5054 63.6582 50.6966 64.4498L49.3199 70.7132C49.1574 71.4552 48.7462 72.1195 48.1546 72.596C47.5629 73.0724 46.8263 73.3325 46.0666 73.3332ZM39.9866 26.6665C36.4504 26.6665 33.059 28.0713 30.5585 30.5717C28.058 33.0722 26.6533 36.4636 26.6533 39.9998C26.6533 43.5361 28.058 46.9274 30.5585 49.4279C33.059 51.9284 36.4504 53.3332 39.9866 53.3332C43.5228 53.3332 46.9142 51.9284 49.4147 49.4279C51.9152 46.9274 53.3199 43.5361 53.3199 39.9998C53.3199 36.4636 51.9152 33.0722 49.4147 30.5717C46.9142 28.0713 43.5228 26.6665 39.9866 26.6665Z" fill="#2E2E2E"/>
</svg>
