<?xml version="1.0" encoding="iso-8859-1"?>
<!-- Generator: Adobe Illustrator 16.0.0, SVG Export Plug-In . SVG Version: 6.00 Build 0)  -->
<!DOCTYPE svg PUBLIC "-//W3C//DTD SVG 1.1//EN" "http://www.w3.org/Graphics/SVG/1.1/DTD/svg11.dtd">
<svg version="1.1" id="Capa_1" xmlns="http://www.w3.org/2000/svg" xmlns:xlink="http://www.w3.org/1999/xlink" x="0px" y="0px"
	 width="42.262px" height="42.262px" viewBox="0 0 42.262 42.262" style="enable-background:new 0 0 42.262 42.262;"
	 xml:space="preserve">
<g>
	<g>
		<path d="M41.159,10.363c-1.031-0.57-2.328-0.194-2.898,0.838l-0.688,1.247C35.214,5.231,28.428,0,20.434,0
			C10.489,0,2.399,8.09,2.399,18.035c0,1.178,0.953,2.134,2.133,2.134c1.178,0,2.133-0.956,2.133-2.134
			c0-7.593,6.178-13.769,13.77-13.769c6.02,0,11.137,3.89,13.003,9.284l-1.166-0.643c-1.028-0.57-2.328-0.195-2.897,0.837
			c-0.568,1.032-0.193,2.329,0.838,2.898l4.215,2.326c0.348,0.707,1.068,1.199,1.91,1.199c0.211,0,0.414-0.041,0.606-0.099
			c0.011,0,0.021,0.004,0.031,0.004c0.754,0,1.482-0.397,1.871-1.103l3.15-5.71C42.564,12.229,42.191,10.932,41.159,10.363z"/>
		<path d="M37.732,22.091c-1.18,0-2.135,0.955-2.135,2.133c0,7.593-6.176,13.771-13.768,13.771c-6.021,0-11.139-3.892-13.006-9.284
			l1.166,0.643c0.326,0.181,0.68,0.267,1.029,0.267c0.752,0,1.48-0.397,1.869-1.104c0.568-1.03,0.195-2.328-0.838-2.897
			l-4.215-2.326c-0.348-0.707-1.066-1.198-1.908-1.198c-0.219,0-0.426,0.042-0.623,0.103c-0.758-0.006-1.496,0.385-1.887,1.096
			L0.265,29c-0.568,1.031-0.193,2.328,0.838,2.898c0.326,0.18,0.68,0.266,1.029,0.266c0.752,0,1.48-0.397,1.869-1.104l0.689-1.246
			c2.357,7.215,9.145,12.447,17.139,12.447c9.942,0,18.035-8.09,18.035-18.036C39.866,23.046,38.911,22.091,37.732,22.091z"/>
	</g>
</g>
<g>
</g>
<g>
</g>
<g>
</g>
<g>
</g>
<g>
</g>
<g>
</g>
<g>
</g>
<g>
</g>
<g>
</g>
<g>
</g>
<g>
</g>
<g>
</g>
<g>
</g>
<g>
</g>
<g>
</g>
</svg>
