<svg id="Calque_1" data-name="Calque 1" xmlns="http://www.w3.org/2000/svg" viewBox="0 0 85.53 97.56"><defs><style>.cls-1{fill:#2a4048;}.cls-2{fill:#ed1c24;opacity:0.5;}</style></defs><title>health</title><path class="cls-1" d="M0,29.89v39a9,9,0,0,0,4.5,7.8L38.26,96.16a9,9,0,0,0,9,0L81,76.67a9,9,0,0,0,4.5-7.8v-39a9,9,0,0,0-4.5-7.8L47.26,2.6a9,9,0,0,0-9,0L4.5,22.09A9,9,0,0,0,0,29.89Z"/><path class="cls-2" d="M63,54.11l-19,19-1.29,1.27L22.47,54.11a14.13,14.13,0,0,1-3.63-6.22A14.33,14.33,0,0,1,42.76,33.82,14.34,14.34,0,0,1,63,54.11Z"/></svg>