<svg id="Calque_1" data-name="Calque 1" xmlns="http://www.w3.org/2000/svg" viewBox="0 0 547.13 123.42"><defs><style>.cls-1{fill:#0ca4cc;}.cls-2{fill:#2a4048;}.cls-3{fill:#e17e26;}</style></defs><title>mana</title><path class="cls-1" d="M36.06,88.11q89.25-1.8,181.62-2.24,147-.68,286.4,2.24a124.4,124.4,0,0,0,5.08-17.49A118.3,118.3,0,0,0,510.64,30c-23.47-2.66-59.24-6.17-103.09-8.22-32.79-1.53-59.86-1.61-91.73-1.37-57.29.44-86.13,1.66-117.83,2.27-36.34.69-89.15.81-154.74-2.25Q39.67,54.27,36.06,88.11Z"/><path class="cls-2" d="M294.21,96.17a829.53,829.53,0,0,0-185.82-6.4c-19.6,1.55-38.37,3.74-56.27,6.4V80H252C266.05,80.05,294.21,90.79,294.21,96.17Z"/><path class="cls-2" d="M503.29,15.1a33.53,33.53,0,0,1,7.72,5A22.27,22.27,0,0,1,513.72,23a22.88,22.88,0,0,1,2.6,4.35c1.51,4.4,1.25,10.31-1.38,11.65-2.44,1.23-5.24-3.62-11.93-6.66A40.79,40.79,0,0,0,494.24,30c-8.52-1.35-90.55-5.1-202.26-9.36C411.37,15.09,498.63,13,503.29,15.1Z"/><path class="cls-2" d="M443.53,108c3.3,8.66,29.31-3.34,69.67,9.15,11.08,3.43,21.85,8.28,23.71,5.41,2.17-3.33-9.48-14.39-11.85-16.64-13.23-12.55-30.55-29-51.58-25C456.1,84.29,440.76,100.72,443.53,108Z"/><path class="cls-1" d="M513.51,64.35a96.14,96.14,0,0,1,33.62.89,61.1,61.1,0,0,1-16.59,23.32,167.4,167.4,0,0,0,7.17,17c2.06,4.21,4.18,8.1,6.28,11.66q-12.75-3.33-26.75-6.13a460.42,460.42,0,0,0-61.57-7.92c1.12-3.31,3.73-9.27,9.57-12.4,1.55-.84,5.58-2.68,20.45-.34a141,141,0,0,1,20.94,5A51,51,0,0,0,511,86,52.47,52.47,0,0,0,513.51,64.35Z"/><path class="cls-3" d="M0,35.26v39A9,9,0,0,0,4.5,82l33.76,19.49a9,9,0,0,0,9,0L81,82a9,9,0,0,0,4.5-7.79v-39a9,9,0,0,0-4.5-7.8L47.26,8a9,9,0,0,0-9,0L4.5,27.46A9,9,0,0,0,0,35.26Z"/></svg>